<?xml version="1.0" standalone="no"?>
<!DOCTYPE svg PUBLIC "-//W3C//DTD SVG 20010904//EN"
 "http://www.w3.org/TR/2001/REC-SVG-20010904/DTD/svg10.dtd">
<svg version="1.0" xmlns="http://www.w3.org/2000/svg"
 width="540.000000pt" height="540.000000pt" viewBox="0 0 540.000000 540.000000"
 preserveAspectRatio="xMidYMid meet">
<metadata>
Created by potrace 1.14, written by Peter Selinger 2001-2017
</metadata>
<g transform="translate(0.000000,540.000000) scale(0.100000,-0.100000)"
fill="#000000" stroke="none">
<path d="M1960 5371 c-165 -43 -366 -127 -487 -204 -24 -15 -44 -27 -47 -27
-2 0 -46 -27 -97 -60 -52 -33 -101 -63 -109 -67 -8 -4 -33 -17 -54 -31 l-39
-24 -25 33 c-162 213 -389 252 -533 92 -60 -66 -83 -127 -86 -219 -3 -129 34
-221 127 -315 30 -31 66 -63 80 -73 l25 -16 -19 -52 c-40 -114 -90 -158 -271
-238 -132 -58 -199 -98 -255 -152 -46 -44 -99 -132 -125 -211 -24 -74 -26 -87
-25 -278 l2 -201 32 -77 c18 -43 48 -100 66 -127 35 -52 173 -193 229 -234 19
-14 47 -35 62 -47 15 -13 29 -23 32 -23 6 0 192 -127 221 -150 76 -62 119
-109 142 -156 46 -94 25 -183 -88 -387 -71 -129 -252 -390 -376 -542 -22 -27
-82 -147 -101 -204 -69 -202 -97 -585 -51 -721 45 -137 105 -240 193 -330 45
-47 103 -101 127 -121 112 -89 290 -170 436 -199 44 -9 244 -11 760 -7 728 4
747 5 979 52 59 11 137 26 205 39 8 2 22 5 30 8 15 6 174 45 218 54 13 2 44
12 69 20 25 9 53 17 62 19 25 6 257 89 346 125 44 17 85 32 90 34 6 1 28 12
50 23 22 12 49 23 60 25 11 1 22 5 25 8 3 3 46 24 95 48 210 101 407 213 573
323 40 27 74 49 77 49 8 0 226 162 304 225 96 79 292 258 358 327 30 33 70 92
97 146 l46 92 0 193 0 194 -52 104 c-49 99 -135 240 -175 285 -10 12 -29 36
-43 54 -54 71 -179 207 -355 385 -217 221 -385 400 -454 485 -19 24 -40 48
-46 54 -56 58 -215 297 -271 407 -32 64 -81 182 -89 214 -1 6 -5 17 -8 25 -7
17 -37 164 -34 165 31 12 223 154 274 203 97 93 150 172 172 257 11 40 3 170
-12 205 -34 77 -144 167 -227 184 -14 3 -36 8 -50 11 -35 8 -146 8 -199 0 -57
-8 -179 -52 -213 -76 -14 -11 -29 -19 -32 -19 -3 0 -25 -13 -47 -30 -39 -28
-59 -31 -59 -10 0 12 -60 106 -89 140 -124 144 -255 231 -444 294 -159 53
-192 56 -547 55 -320 -1 -327 -1 -430 -28z"/>
</g>
</svg>
